HIERARCHY
ROOT Hips
{
  OFFSET -4.35178 90.3298 111.633
  CHANNELS 6 Xposition Yposition Zposition Zrotation Xrotation Yrotation
  JOINT LeftUpLeg
  {
    OFFSET 0.103456 1.85784 10.5485
    CHANNELS 6 Xposition Yposition Zposition Zrotation Xrotation Yrotation
    JOINT LeftLeg
    {
      OFFSET 43.5 -4.2e-05 0
      CHANNELS 6 Xposition Yposition Zposition Zrotation Xrotation Yrotation
      JOINT LeftFoot
      {
        OFFSET 42.3722 1.9e-05 0
        CHANNELS 6 Xposition Yposition Zposition Zrotation Xrotation Yrotation
        JOINT LeftToe
        {
          OFFSET 17.3 0 0
          CHANNELS 6 Xposition Yposition Zposition Zrotation Xrotation Yrotation
          End Site
          {
            OFFSET 0 0 0
          }
        }
      }
    }
  }
  JOINT RightUpLeg
  {
    OFFSET 0.103456 1.85782 -10.5485
    CHANNELS 6 Xposition Yposition Zposition Zrotation Xrotation Yrotation
    JOINT RightLeg
    {
      OFFSET 43.5 -2.7e-05 0
      CHANNELS 6 Xposition Yposition Zposition Zrotation Xrotation Yrotation
      JOINT RightFoot
      {
        OFFSET 42.3723 0 0
        CHANNELS 6 Xposition Yposition Zposition Zrotation Xrotation Yrotation
        JOINT RightToe
        {
          OFFSET 17.3 0 1.7e-05
          CHANNELS 6 Xposition Yposition Zposition Zrotation Xrotation Yrotation
          End Site
          {
            OFFSET 0 0 0
          }
        }
      }
    }
  }
  JOINT Spine
  {
    OFFSET 6.90197 -2.60373 0
    CHANNELS 6 Xposition Yposition Zposition Zrotation Xrotation Yrotation
    JOINT Spine1
    {
      OFFSET 12.5881 0 0
      CHANNELS 6 Xposition Yposition Zposition Zrotation Xrotation Yrotation
      JOINT Spine2
      {
        OFFSET 12.3432 -1.8e-05 0
        CHANNELS 6 Xposition Yposition Zposition Zrotation Xrotation Yrotation
        JOINT Neck
        {
          OFFSET 25.8329 2.3e-05 0
          CHANNELS 6 Xposition Yposition Zposition Zrotation Xrotation Yrotation
          JOINT Head
          {
            OFFSET 11.7666 0 0
            CHANNELS 6 Xposition Yposition Zposition Zrotation Xrotation Yrotation
            End Site
            {
              OFFSET 0 0 0
            }
          }
        }
        JOINT LeftShoulder
        {
          OFFSET 19.7459 -1.48035 6.0001
          CHANNELS 6 Xposition Yposition Zposition Zrotation Xrotation Yrotation
          JOINT LeftArm
          {
            OFFSET 11.2841 1.8e-05 -2e-05
            CHANNELS 6 Xposition Yposition Zposition Zrotation Xrotation Yrotation
            JOINT LeftForeArm
            {
              OFFSET 33 -1.3e-05 1.9e-05
              CHANNELS 6 Xposition Yposition Zposition Zrotation Xrotation Yrotation
              JOINT LeftHand
              {
                OFFSET 25.2 3.2e-05 1.1e-05
                CHANNELS 6 Xposition Yposition Zposition Zrotation Xrotation Yrotation
                End Site
                {
                  OFFSET 0 0 0
                }
              }
            }
          }
        }
        JOINT RightShoulder
        {
          OFFSET 19.7461 -1.48036 -6.00008
          CHANNELS 6 Xposition Yposition Zposition Zrotation Xrotation Yrotation
          JOINT RightArm
          {
            OFFSET 11.2841 0 0
            CHANNELS 6 Xposition Yposition Zposition Zrotation Xrotation Yrotation
            JOINT RightForeArm
            {
              OFFSET 33.0001 1.6e-05 0
              CHANNELS 6 Xposition Yposition Zposition Zrotation Xrotation Yrotation
              JOINT RightHand
              {
                OFFSET 25.1998 0.000123 0.000432
                CHANNELS 6 Xposition Yposition Zposition Zrotation Xrotation Yrotation
                End Site
                {
                  OFFSET 0 0 0
                }
              }
            }
          }
        }
      }
    }
  }
}
MOTION
Frames:	10
Frame Time:	0.0333333
67.8713 89.7832 -96.7911 2.29211 -84.8749 -86.5652 0.103456 1.85784 10.5485 10.5967 -3.1092 -178.106 43.5 -4.2e-05 1e-05 -6.43581 -5.51724 -2.0054 42.3722 1.9e-05 0 76.9749 -10.8156 0.572884 17.3 0 3e-06 21.4546 -1e-06 0.003093 0.103456 1.85782 -10.5485 5.07954 -8.93756 174.438 43.5 -2.7e-05 4e-06 -15.2321 9.31401 2.68463 42.3723 1.42109e-14 1e-05 83.2376 5.49779 -1.13104 17.3 -6e-06 1.7e-05 21.4546 -1.9e-05 -0.003116 6.90197 -2.60373 -3e-06 7.43104 0.0270634 -0.230519 12.5881 1e-05 8e-06 4.84831 0.0834606 -0.439778 12.3432 -1.8e-05 -5e-06 4.52994 0.126759 -0.432994 25.8329 2.3e-05 7e-06 4.57316 4.17613 -11.9061 11.7666 -8e-06 -6e-06 -18.5963 3.83736 12.3633 19.7459 -1.48035 6.0001 -176.668 6.20595 -92.0969 11.2841 1.8e-05 -2e-05 22.9484 -17.4008 20.0467 33 -1.3e-05 1.9e-05 -31.4162 -2.97113 -17.2671 25.2 3.2e-05 1.1e-05 12.0564 28.4012 -6.73099 19.7461 -1.48036 -6.00008 178.961 7.71798 89.1781 11.2841 0 -1e-06 -8.96985 4.85541 -12.0309 33.0001 1.6e-05 -1e-06 -22.5939 -2.18384 14.0812 25.1998 0.000123 0.000432 7.15489 -14.0242 2.42909 
67.8673 89.7829 -96.789 0.617216 -84.8818 -88.2829 0.103456 1.85784 10.5485 10.6284 -3.14857 -178.115 43.5 -4.2e-05 1e-05 -6.43875 -5.57279 -2.01564 42.3722 1.9e-05 -1.42109e-14 77.013 -10.8971 0.670502 17.3 3.55271e-15 3e-06 21.4546 -1e-06 0.003093 0.103456 1.85782 -10.5485 5.04962 -8.96708 174.461 43.5 -2.7e-05 4e-06 -15.1979 9.25674 2.66732 42.3723 0 1e-05 83.2219 5.43994 -1.05809 17.3 -6e-06 1.7e-05 21.4546 -1.9e-05 -0.003116 6.90197 -2.60373 -3e-06 7.44045 0.0505599 -0.212161 12.5881 1e-05 8e-06 4.8666 0.133137 -0.406502 12.3432 -1.8e-05 -5e-06 4.54738 0.178675 -0.402827 25.8329 2.3e-05 7e-06 4.58258 4.22452 -11.945 11.7666 -8e-06 -6e-06 -18.4565 3.9488 12.3334 19.7459 -1.48035 6.0001 -176.682 6.1973 -92.0975 11.2841 1.8e-05 -2e-05 22.944 -17.4016 20.1159 33 -1.3e-05 1.9e-05 -31.3386 -2.99906 -17.2778 25.2 3.2e-05 1.1e-05 12.1219 28.3852 -6.75234 19.7461 -1.48036 -6.00008 178.952 7.72473 89.0754 11.2841 0 -1e-06 -9.20276 4.70827 -11.9656 33.0001 1.6e-05 -1e-06 -22.681 -2.2364 14.0516 25.1998 0.000123 0.000432 7.11027 -14.0624 2.46293 
67.8226 89.7847 -96.7877 -0.758851 -84.8841 -89.6884 0.103456 1.85784 10.5485 10.6398 -3.16128 -178.114 43.5 -4.2e-05 1e-05 -6.44372 -5.61385 -2.02728 42.3722 1.9e-05 7.10543e-15 77.0268 -11.0164 0.725116 17.3 -7.10543e-15 3e-06 21.4546 -1e-06 0.003093 0.103456 1.85782 -10.5485 4.98927 -8.98939 174.455 43.5 -2.7e-05 4e-06 -15.232 9.21003 2.66795 42.3723 0 1e-05 83.2421 5.37497 -1.00094 17.3 -6e-06 1.7e-05 21.4546 -1.9e-05 -0.003116 6.90197 -2.60373 -3e-06 7.44301 0.0691085 -0.189799 12.5881 1e-05 8e-06 4.87119 0.173402 -0.364552 12.3432 -1.8e-05 -5e-06 4.55124 0.221516 -0.363441 25.8329 2.3e-05 7e-06 4.57824 4.25361 -11.9657 11.7666 -8e-06 -6e-06 -18.3338 4.02378 12.3117 19.7459 -1.48035 6.0001 -176.708 6.18894 -92.0844 11.2841 1.8e-05 -2e-05 22.921 -17.4256 20.2723 33 -1.3e-05 1.9e-05 -31.2715 -2.95613 -17.3159 25.2 3.2e-05 1.1e-05 12.0764 28.3912 -6.72602 19.7461 -1.48036 -6.00008 178.94 7.71546 88.9772 11.2841 0 -1e-06 -9.37821 4.6188 -11.9286 33.0001 1.6e-05 -1e-06 -22.8618 -2.25696 14.0529 25.1998 0.000123 0.000432 7.0151 -14.0659 2.49126 
67.8104 89.7904 -96.7636 -1.74171 -84.8873 -90.6861 0.103456 1.85784 10.5485 10.6317 -3.17804 -178.105 43.5 -4.2e-05 1e-05 -6.46399 -5.5988 -2.05392 42.3722 1.9e-05 0 77.0012 -11.1965 0.684395 17.3 0 3e-06 21.4546 -1e-06 0.003093 0.103456 1.85782 -10.5485 4.84315 -8.9978 174.404 43.5 -2.7e-05 4e-06 -15.4358 9.17334 2.67406 42.3723 -2.84217e-14 1e-05 83.2753 5.35486 -0.941664 17.3 -6e-06 1.7e-05 21.4546 -1.9e-05 -0.003116 6.90197 -2.60373 -3e-06 7.46328 0.0780569 -0.172793 12.5881 1e-05 8e-06 4.9115 0.194088 -0.331861 12.3432 -1.8e-05 -5e-06 4.59114 0.244793 -0.332033 25.8329 2.3e-05 7e-06 4.51048 4.2652 -11.9955 11.7666 -8e-06 -6e-06 -18.2321 4.05127 12.3246 19.7459 -1.48035 6.0001 -176.658 6.19386 -91.9148 11.2841 1.8e-05 -2e-05 22.8286 -17.2642 20.2327 33 -1.3e-05 1.9e-05 -31.4449 -2.99764 -17.1871 25.2 3.2e-05 1.1e-05 12.1064 28.3912 -6.7503 19.7461 -1.48036 -6.00008 178.958 7.73455 88.7666 11.2841 0 -1e-06 -9.6028 4.36918 -11.888 33.0001 1.6e-05 -1e-06 -23.2362 -2.51929 14.1063 25.1998 0.000123 0.000432 7.11084 -14.2834 2.59364 
67.7998 89.8021 -96.7301 -2.52146 -84.8884 -91.4735 0.103456 1.85784 10.5485 10.5789 -3.19551 -178.074 43.5 -4.2e-05 1e-05 -6.55922 -5.50534 -2.06581 42.3722 1.9e-05 -7.10543e-15 77.029 -11.3082 0.561814 17.3 3.55271e-15 3e-06 21.4546 -1e-06 0.003093 0.103456 1.85782 -10.5485 4.55942 -8.96682 174.319 43.5 -2.7e-05 4e-06 -15.9389 9.15683 2.71541 42.3723 0 1e-05 83.3801 5.37514 -0.86553 17.3 -6e-06 1.7e-05 21.4546 -1.9e-05 -0.003116 6.90197 -2.60373 -3e-06 7.48927 0.0728845 -0.141826 12.5881 1e-05 8e-06 4.96333 0.188384 -0.269313 12.3432 -1.8e-05 -5e-06 4.64283 0.243757 -0.269159 25.8329 2.3e-05 7e-06 4.46176 4.19462 -11.9517 11.7666 -8e-06 -6e-06 -18.1635 3.9973 12.2313 19.7459 -1.48035 6.0001 -176.767 6.14682 -91.9166 11.2841 1.8e-05 -2e-05 22.7414 -17.4402 20.845 33 -1.3e-05 1.9e-05 -31.255 -2.7061 -17.4031 25.2 3.2e-05 1.1e-05 11.861 28.4827 -6.72356 19.7461 -1.48036 -6.00008 179.064 7.70055 88.4762 11.2841 -1.42109e-14 -1e-06 -9.82595 3.8918 -11.7803 33.0001 1.6e-05 -1e-06 -24.0381 -2.87344 14.1798 25.1998 0.000123 0.000432 7.04117 -14.515 2.6742 
67.7844 89.7773 -96.6691 -3.84438 -84.8919 -92.7773 0.103456 1.85784 10.5485 10.4338 -3.26032 -178.099 43.5 -4.2e-05 1e-05 -6.8019 -5.353 -2.03207 42.3722 1.9e-05 0 77.081 -11.5581 0.502837 17.3 0 3e-06 21.4546 -1e-06 0.003093 0.103456 1.85782 -10.5485 3.86264 -8.80378 174.119 43.5 -2.7e-05 4e-06 -17.2838 9.20565 2.78926 42.3723 -1.42109e-14 1e-05 83.8859 5.3297 -0.805825 17.3 -6e-06 1.7e-05 21.4546 -1.9e-05 -0.003116 6.90197 -2.60373 -3e-06 7.5405 0.0683887 -0.139757 12.5881 1e-05 8e-06 5.06585 0.181132 -0.264459 12.3432 -1.8e-05 -5e-06 4.74541 0.238371 -0.263718 25.8329 2.3e-05 7e-06 4.37886 4.20749 -11.9617 11.7666 -8e-06 -6e-06 -18.1978 3.98084 12.2691 19.7459 -1.48035 6.0001 -176.687 6.17768 -91.754 11.2841 1.8e-05 -2e-05 22.7755 -17.3876 21.2591 33 -1.3e-05 1.9e-05 -31.566 -2.59655 -17.3072 25.2 3.2e-05 1.1e-05 11.6163 28.5284 -6.73459 19.7461 -1.48036 -6.00008 179.097 7.62569 88.2521 11.2841 0 -1e-06 -9.75352 4.11445 -12.1982 33.0001 1.6e-05 -1e-06 -25.54 -2.80745 14.5004 25.1998 0.000123 0.000432 6.6392 -14.5002 2.95162 
67.7426 89.7556 -96.5638 -6.81176 -84.9031 -95.6576 0.103456 1.85784 10.5485 9.71556 -3.19037 -178.281 43.5 -4.2e-05 1e-05 -8.08805 -5.15754 -1.9147 42.3722 1.9e-05 -7.10543e-15 77.4702 -11.7651 0.574338 17.3 -3.55271e-15 3e-06 21.4546 -1e-06 0.003093 0.103456 1.85782 -10.5485 2.62361 -8.5489 173.729 43.5 -2.7e-05 4e-06 -19.5606 9.25451 3.01238 42.3723 -1.42109e-14 1e-05 84.6456 5.33595 -0.663484 17.3 -6e-06 1.7e-05 21.4546 -1.9e-05 -0.003116 6.90197 -2.60373 -3e-06 7.59346 0.0800437 -0.168659 12.5881 1e-05 8e-06 5.17176 0.201262 -0.323749 12.3432 -1.8e-05 -5e-06 4.85122 0.256394 -0.323975 25.8329 2.3e-05 7e-06 4.31431 4.30249 -11.9958 11.7666 -8e-06 -6e-06 -18.2273 3.99533 12.4088 19.7459 -1.48035 6.0001 -176.641 6.17324 -91.6145 11.2841 1.8e-05 -2e-05 22.8093 -17.4042 21.9087 33 -1.3e-05 1.9e-05 -31.8353 -2.38377 -17.2493 25.2 3.2e-05 1.1e-05 11.0229 28.5938 -6.60662 19.7461 -1.48036 -6.00008 179.112 7.39637 87.8879 11.2841 -1.42109e-14 -1e-06 -9.38391 4.76045 -12.9305 33.0001 1.6e-05 -1e-06 -27.5564 -2.43928 14.9742 25.1998 0.000123 0.000432 6.39628 -14.2384 3.08719 
67.7895 89.7593 -96.4205 -12.4989 -84.8663 -101.254 0.103456 1.85784 10.5485 9.17508 -2.93434 -178.439 43.5 -4.2e-05 1e-05 -9.0279 -5.10034 -1.8413 42.3722 1.9e-05 -7.10543e-15 77.7313 -11.8298 0.752842 17.3 0 3e-06 21.4546 -1e-06 0.003093 0.103456 1.85782 -10.5485 0.653786 -8.23722 173.188 43.5 -2.7e-05 4e-06 -23.1166 9.13789 3.39198 42.3723 -1.42109e-14 1e-05 85.173 5.34495 -0.487618 17.3 -6e-06 1.7e-05 21.4546 -1.9e-05 -0.003116 6.90197 -2.60373 -3e-06 7.66982 0.139675 -0.22459 12.5881 1e-05 8e-06 5.32375 0.313463 -0.444001 12.3432 -1.8e-05 -5e-06 5.00194 0.363248 -0.450718 25.8329 2.3e-05 7e-06 4.1242 4.59459 -12.1478 11.7666 -8e-06 -6e-06 -18.1397 4.21156 12.7389 19.7459 -1.48035 6.0001 -176.37 6.22782 -91.1566 11.2841 1.8e-05 -2e-05 22.6727 -16.913 22.078 33 -1.3e-05 1.9e-05 -32.5034 -2.47353 -16.7452 25.2 3.2e-05 1.1e-05 10.2674 28.5673 -6.35866 19.7461 -1.48036 -6.00008 179.108 7.17067 87.2527 11.2841 0 -1e-06 -9.24764 5.06287 -13.5871 33.0001 1.6e-05 -1e-06 -29.8773 -2.01353 15.4099 25.1998 0.000123 0.000432 5.69016 -13.6922 2.9509 
67.906 89.7298 -96.2394 -21.7823 -84.5991 -110.43 0.103456 1.85784 10.5485 8.84573 -2.50646 -178.565 43.5 -4.2e-05 1e-05 -9.71352 -5.14261 -1.85769 42.3722 1.9e-05 0 77.8934 -12.0374 0.918301 17.3 3.55271e-15 3e-06 21.4546 -1e-06 0.003093 0.103456 1.85782 -10.5485 -1.92544 -7.65561 172.158 43.5 -2.7e-05 4e-06 -27.7938 8.56029 4.43221 42.3723 1.42109e-14 1e-05 85.282 5.15827 -0.122764 17.3 -6e-06 1.7e-05 21.4546 -1.9e-05 -0.003116 6.90197 -2.60373 -3e-06 7.78706 0.217692 -0.292642 12.5881 1e-05 8e-06 5.55741 0.461096 -0.591371 12.3432 -1.8e-05 -5e-06 5.2339 0.504996 -0.606587 25.8329 2.3e-05 7e-06 3.91654 4.69922 -12.1982 11.7666 -8e-06 -6e-06 -18.2365 4.22296 12.9143 19.7459 -1.48035 6.0001 -176.074 6.24882 -90.6807 11.2841 1.8e-05 -2e-05 22.5202 -16.4373 22.7165 33 -1.3e-05 1.9e-05 -32.8612 -2.27757 -16.4691 25.2 3.2e-05 1.1e-05 9.5912 28.653 -6.19348 19.7461 -1.48036 -6.00008 179.239 6.78362 86.622 11.2841 0 -1e-06 -9.75448 5.06164 -14.2398 33.0001 1.6e-05 -1e-06 -31.9718 -2.00608 15.6614 25.1998 0.000123 0.000432 5.38283 -13.4901 2.87824 
68.104 89.5901 -96.0837 -31.8958 -84.1794 -120.458 0.103456 1.85784 10.5485 8.29788 -2.39854 -178.671 43.5 -4.2e-05 1e-05 -10.8073 -5.31008 -1.86034 42.3722 1.9e-05 -7.10543e-15 78.413 -12.5442 1.31288 17.3 -3.55271e-15 3e-06 21.4546 -1e-06 0.003093 0.103456 1.85782 -10.5485 -5.06489 -6.08983 170.608 43.5 -2.7e-05 4e-06 -33.6743 7.32742 6.39725 42.3723 0 1e-05 84.9114 5.72642 0.40814 17.3 -6e-06 1.7e-05 21.4546 -1.9e-05 -0.003116 6.90197 -2.60373 -3e-06 7.90972 0.342555 -0.360161 12.5881 1e-05 8e-06 5.80143 0.702029 -0.745091 12.3432 -1.8e-05 -5e-06 5.47488 0.739617 -0.774555 25.8329 2.3e-05 7e-06 3.84735 5.01746 -12.3606 11.7666 -8e-06 -6e-06 -18.4214 4.5764 13.0877 19.7459 -1.48035 6.0001 -175.873 6.26352 -90.2112 11.2841 1.8e-05 -2e-05 22.2221 -16.0792 23.8399 33 -1.3e-05 1.9e-05 -33.1969 -2.10242 -16.2031 25.2 3.2e-05 1.1e-05 9.02699 28.7286 -6.1373 19.7461 -1.48036 -6.00008 179.276 6.5532 85.9656 11.2841 -1.42109e-14 -1e-06 -10.5097 4.94005 -15.037 33.0001 1.6e-05 -1e-06 -34.2335 -2.26887 15.854 25.1998 0.000123 0.000432 4.67538 -13.3805 2.85062 
